<svg width="38" height="38" viewBox="0 0 38 38" fill="none" xmlns="http://www.w3.org/2000/svg">
<path d="M19 34.8333C16.8097 34.8333 14.7513 34.4177 12.825 33.5864C10.8986 32.7552 9.22288 31.627 7.79788 30.202C6.37288 28.777 5.24475 27.1013 4.4135 25.175C3.58225 23.2486 3.16663 21.1902 3.16663 19C3.16663 16.8097 3.58225 14.7513 4.4135 12.825C5.24475 10.8986 6.37288 9.22288 7.79788 7.79788C9.22288 6.37288 10.8986 5.24475 12.825 4.4135C14.7513 3.58225 16.8097 3.16663 19 3.16663C21.1902 3.16663 23.2486 3.58225 25.175 4.4135C27.1013 5.24475 28.777 6.37288 30.202 7.79788C31.627 9.22288 32.7552 10.8986 33.5864 12.825C34.4177 14.7513 34.8333 16.8097 34.8333 19C34.8333 21.1902 34.4177 23.2486 33.5864 25.175C32.7552 27.1013 31.627 28.777 30.202 30.202C28.777 31.627 27.1013 32.7552 25.175 33.5864C23.2486 34.4177 21.1902 34.8333 19 34.8333ZM19 31.6666C22.5361 31.6666 25.5312 30.4395 27.9854 27.9854C30.4395 25.5312 31.6666 22.5361 31.6666 19C31.6666 15.4638 30.4395 12.4687 27.9854 10.0145C25.5312 7.56038 22.5361 6.33329 19 6.33329C15.4638 6.33329 12.4687 7.56038 10.0145 10.0145C7.56038 12.4687 6.33329 15.4638 6.33329 19C6.33329 22.5361 7.56038 25.5312 10.0145 27.9854C12.4687 30.4395 15.4638 31.6666 19 31.6666Z" fill="white"/>
</svg>
