<svg width="82" height="82" viewBox="0 0 82 82" fill="none" xmlns="http://www.w3.org/2000/svg">
<path d="M20.5 64.9168V68.3335C20.5 69.3016 20.1726 70.113 19.5177 70.7679C18.8628 71.4227 18.0514 71.7502 17.0833 71.7502H13.6667C12.6986 71.7502 11.8872 71.4227 11.2323 70.7679C10.5774 70.113 10.25 69.3016 10.25 68.3335V41.0002L17.425 20.5002C17.7667 19.4752 18.3788 18.6495 19.2615 18.0231C20.1441 17.3967 21.1264 17.0835 22.2083 17.0835H59.7917C60.8736 17.0835 61.8559 17.3967 62.7385 18.0231C63.6212 18.6495 64.2333 19.4752 64.575 20.5002L71.75 41.0002V68.3335C71.75 69.3016 71.4226 70.113 70.7677 70.7679C70.1128 71.4227 69.3014 71.7502 68.3333 71.7502H64.9167C63.9486 71.7502 63.1372 71.4227 62.4823 70.7679C61.8274 70.113 61.5 69.3016 61.5 68.3335V64.9168H20.5ZM19.8167 34.1668H62.1833L58.5958 23.9168H23.4042L19.8167 34.1668ZM25.625 54.6668C27.0486 54.6668 28.2587 54.1686 29.2552 53.172C30.2517 52.1755 30.75 50.9654 30.75 49.5418C30.75 48.1182 30.2517 46.9081 29.2552 45.9116C28.2587 44.9151 27.0486 44.4168 25.625 44.4168C24.2014 44.4168 22.9913 44.9151 21.9948 45.9116C20.9983 46.9081 20.5 48.1182 20.5 49.5418C20.5 50.9654 20.9983 52.1755 21.9948 53.172C22.9913 54.1686 24.2014 54.6668 25.625 54.6668ZM56.375 54.6668C57.7986 54.6668 59.0087 54.1686 60.0052 53.172C61.0017 52.1755 61.5 50.9654 61.5 49.5418C61.5 48.1182 61.0017 46.9081 60.0052 45.9116C59.0087 44.9151 57.7986 44.4168 56.375 44.4168C54.9514 44.4168 53.7413 44.9151 52.7448 45.9116C51.7483 46.9081 51.25 48.1182 51.25 49.5418C51.25 50.9654 51.7483 52.1755 52.7448 53.172C53.7413 54.1686 54.9514 54.6668 56.375 54.6668ZM17.0833 58.0835H64.9167V41.0002H17.0833V58.0835Z" fill="#C8E642"/>
</svg>
