<svg width="322" height="322" viewBox="0 0 322 322" fill="none" xmlns="http://www.w3.org/2000/svg">
<path d="M80.5 268.333C69.3194 268.333 59.8159 264.42 51.9895 256.594C44.1632 248.767 40.25 239.264 40.25 228.083H13.4166V80.4998C13.4166 73.1207 16.0441 66.8037 21.2989 61.5488C26.5538 56.2939 32.8708 53.6665 40.25 53.6665H228.083V107.333H268.333L308.583 161V228.083H281.75C281.75 239.264 277.837 248.767 270.01 256.594C262.184 264.42 252.68 268.333 241.5 268.333C230.319 268.333 220.816 264.42 212.99 256.594C205.163 248.767 201.25 239.264 201.25 228.083H120.75C120.75 239.264 116.837 248.767 109.01 256.594C101.184 264.42 91.6805 268.333 80.5 268.333ZM80.5 241.5C84.3013 241.5 87.4878 240.214 90.0593 237.643C92.6309 235.071 93.9166 231.885 93.9166 228.083C93.9166 224.282 92.6309 221.095 90.0593 218.524C87.4878 215.952 84.3013 214.667 80.5 214.667C76.6986 214.667 73.5121 215.952 70.9406 218.524C68.3691 221.095 67.0833 224.282 67.0833 228.083C67.0833 231.885 68.3691 235.071 70.9406 237.643C73.5121 240.214 76.6986 241.5 80.5 241.5ZM40.25 201.25H50.9833C54.7847 197.225 59.1451 193.982 64.0645 191.523C68.984 189.063 74.4625 187.833 80.5 187.833C86.5375 187.833 92.0159 189.063 96.9354 191.523C101.855 193.982 106.215 197.225 110.017 201.25H201.25V80.4998H40.25V201.25ZM241.5 241.5C245.301 241.5 248.488 240.214 251.059 237.643C253.631 235.071 254.917 231.885 254.917 228.083C254.917 224.282 253.631 221.095 251.059 218.524C248.488 215.952 245.301 214.667 241.5 214.667C237.699 214.667 234.512 215.952 231.941 218.524C229.369 221.095 228.083 224.282 228.083 228.083C228.083 231.885 229.369 235.071 231.941 237.643C234.512 240.214 237.699 241.5 241.5 241.5ZM228.083 174.417H285.104L254.917 134.167H228.083V174.417Z" fill="#141900"/>
</svg>
