<svg width="56" height="56" viewBox="0 0 56 56" fill="none" xmlns="http://www.w3.org/2000/svg">
<path d="M16.3333 25.6666V16.3333C16.3333 13.2391 17.5625 10.2716 19.7504 8.08371C21.9383 5.89579 24.9058 4.66663 28 4.66663C31.0942 4.66663 34.0617 5.89579 36.2496 8.08371C38.4375 10.2716 39.6667 13.2391 39.6667 16.3333V25.6666M11.6667 25.6666H44.3333C46.9107 25.6666 49 27.756 49 30.3333V46.6666C49 49.244 46.9107 51.3333 44.3333 51.3333H11.6667C9.08934 51.3333 7 49.244 7 46.6666V30.3333C7 27.756 9.08934 25.6666 11.6667 25.6666Z" stroke="black" stroke-width="4" stroke-linecap="round" stroke-linejoin="round"/>
</svg>
