<svg width="32" height="32" viewBox="0 0 32 32" fill="none" xmlns="http://www.w3.org/2000/svg">
<path d="M14.1334 21.3333C14.1334 19.5333 14.2945 18.2389 14.6167 17.45C14.939 16.6611 15.6223 15.8 16.6667 14.8667C17.5778 14.0667 18.2723 13.3722 18.7501 12.7833C19.2278 12.1944 19.4667 11.5222 19.4667 10.7667C19.4667 9.85556 19.1612 9.1 18.5501 8.5C17.939 7.9 17.089 7.6 16.0001 7.6C14.8667 7.6 14.0056 7.94444 13.4167 8.63333C12.8278 9.32222 12.4112 10.0222 12.1667 10.7333L8.7334 9.26667C9.20007 7.84444 10.0556 6.61111 11.3001 5.56667C12.5445 4.52222 14.1112 4 16.0001 4C18.3334 4 20.1278 4.65 21.3834 5.95C22.639 7.25 23.2667 8.81111 23.2667 10.6333C23.2667 11.7444 23.0278 12.6944 22.5501 13.4833C22.0723 14.2722 21.3223 15.1667 20.3001 16.1667C19.2112 17.2111 18.5501 18.0056 18.3167 18.55C18.0834 19.0944 17.9667 20.0222 17.9667 21.3333H14.1334ZM16.0001 29.3333C15.2667 29.3333 14.639 29.0722 14.1167 28.55C13.5945 28.0278 13.3334 27.4 13.3334 26.6667C13.3334 25.9333 13.5945 25.3056 14.1167 24.7833C14.639 24.2611 15.2667 24 16.0001 24C16.7334 24 17.3612 24.2611 17.8834 24.7833C18.4056 25.3056 18.6667 25.9333 18.6667 26.6667C18.6667 27.4 18.4056 28.0278 17.8834 28.55C17.3612 29.0722 16.7334 29.3333 16.0001 29.3333Z" fill="#212800"/>
</svg>
