<svg width="36" height="36" viewBox="0 0 36 36" fill="none" xmlns="http://www.w3.org/2000/svg">
<path d="M18 33C16.125 33 14.3688 32.6438 12.7313 31.9313C11.0938 31.2188 9.66875 30.2563 8.45625 29.0438C7.24375 27.8313 6.28125 26.4063 5.56875 24.7688C4.85625 23.1313 4.5 21.375 4.5 19.5H7.5C7.5 22.425 8.51875 24.9063 10.5563 26.9438C12.5938 28.9813 15.075 30 18 30C20.925 30 23.4063 28.9813 25.4438 26.9438C27.4813 24.9063 28.5 22.425 28.5 19.5C28.5 16.575 27.4813 14.0938 25.4438 12.0563C23.4063 10.0188 20.925 9 18 9H17.775L20.1 11.325L18 13.5L12 7.5L18 1.5L20.1 3.675L17.775 6H18C19.875 6 21.6313 6.35625 23.2688 7.06875C24.9063 7.78125 26.3313 8.74375 27.5438 9.95625C28.7563 11.1688 29.7188 12.5938 30.4313 14.2313C31.1438 15.8688 31.5 17.625 31.5 19.5C31.5 21.375 31.1438 23.1313 30.4313 24.7688C29.7188 26.4063 28.7563 27.8313 27.5438 29.0438C26.3313 30.2563 24.9063 31.2188 23.2688 31.9313C21.6313 32.6438 19.875 33 18 33Z" fill="black"/>
</svg>
